<?xml version="1.0" encoding="UTF-8" standalone="no"?>
<!-- Created with Inkscape (http://www.inkscape.org/) -->

<svg
   xmlns:dc="http://purl.org/dc/elements/1.1/"
   xmlns:cc="http://creativecommons.org/ns#"
   xmlns:rdf="http://www.w3.org/1999/02/22-rdf-syntax-ns#"
   xmlns:svg="http://www.w3.org/2000/svg"
   xmlns="http://www.w3.org/2000/svg"
   xmlns:sodipodi="http://sodipodi.sourceforge.net/DTD/sodipodi-0.dtd"
   xmlns:inkscape="http://www.inkscape.org/namespaces/inkscape"
   width="13.732284in"
   height="13.228347in"
   viewBox="0 0 348.8 336.00001"
   version="1.1"
   id="svg8"
   inkscape:version="0.92.4 (5da689c313, 2019-01-14)"
   sodipodi:docname="drawing.svg">
  <defs
     id="defs2" />
  <sodipodi:namedview
     id="base"
     pagecolor="#ffffff"
     bordercolor="#666666"
     borderopacity="1.0"
     inkscape:pageopacity="0.0"
     inkscape:pageshadow="2"
     inkscape:zoom="0.81557583"
     inkscape:cx="659.14961"
     inkscape:cy="542.78302"
     inkscape:document-units="mm"
     inkscape:current-layer="layer1"
     showgrid="false"
     inkscape:window-width="1920"
     inkscape:window-height="1051"
     inkscape:window-x="-9"
     inkscape:window-y="-9"
     inkscape:window-maximized="1"
     units="in"
     inkscape:pagecheckerboard="false"
     fit-margin-top="0"
     fit-margin-left="0"
     fit-margin-right="0"
     fit-margin-bottom="0" />
  <metadata
     id="metadata5">
    <rdf:RDF>
      <cc:Work
         rdf:about="">
        <dc:format>image/svg+xml</dc:format>
        <dc:type
           rdf:resource="http://purl.org/dc/dcmitype/StillImage" />
        <dc:title />
      </cc:Work>
    </rdf:RDF>
  </metadata>
  <g
     inkscape:label="Layer 1"
     inkscape:groupmode="layer"
     id="layer1"
     transform="translate(-0.5,-0.5)">
    <g
       transform="matrix(0.35277777,0,0,0.35277777,0,6.6675e-6)"
       inkscape:label="Box"
       id="g823">
      <g
         id="g825" />
    </g>
    <path
       id="path834"
       inkscape:label="part"
       style="fill:none;stroke:#000000;stroke-width:1"
       d="m 48.2,148.5 h 11.427727 v -3.1 h 11.562727 v 3.1 h 11.382728 v -3.1 h 11.562727 v 3.1 h 11.382731 v -3.1 h 11.56272 v 3.1 h 11.38273 v -3.1 h 11.56273 v 3.1 h 11.38273 v -3.1 h 11.56272 v 3.1 H 174.4"
       inkscape:connector-curvature="0" />
    <path
       id="path836"
       inkscape:label="part"
       style="fill:none;stroke:#000000;stroke-width:1"
       d="m 109.75,160.845 v 15.31 h 3.1 v -15.31 h -3.1"
       inkscape:connector-curvature="0" />
    <path
       id="path838"
       inkscape:label="part"
       style="fill:none;stroke:#000000;stroke-width:1"
       d="m 174.4,148.5 v 12.345 h -3.1 v 15.31 h 3.1 V 188.5"
       inkscape:connector-curvature="0" />
    <path
       id="path840"
       inkscape:label="part"
       style="fill:none;stroke:#000000;stroke-width:1"
       d="m 174.4,188.5 h -11.42773 v 3.1 h -11.56272 v -3.1 h -11.38273 v 3.1 h -11.56273 v -3.1 h -11.38273 v 3.1 h -11.56272 v -3.1 H 94.135909 v 3.1 H 82.573182 v -3.1 H 71.190454 v 3.1 H 59.627727 v -3.1 H 48.2"
       inkscape:connector-curvature="0" />
    <path
       id="path842"
       inkscape:label="part"
       style="fill:none;stroke:#000000;stroke-width:1"
       d="m 48.2,188.5 v -12.345 h 3.1 v -15.31 H 48.2 V 148.5"
       inkscape:connector-curvature="0" />
    <path
       id="path844"
       inkscape:label="part"
       style="fill:none;stroke:#000000;stroke-width:1"
       d="M 4.0999999,51.3 H 16.355 v -3.1 h 15.49 v 3.1 H 44.1"
       inkscape:connector-curvature="0" />
    <path
       id="path846"
       inkscape:label="part"
       style="fill:none;stroke:#000000;stroke-width:1"
       d="m 44.1,51.3 v 7.543889 h 3.1 v 10.778889 h -3.1 v 10.598888 h 3.1 v 10.778889 h -3.1 v 10.598885 h 3.1 v 10.77889 h -3.1 v 10.59889 h 3.1 v 10.77889 H 44.1 V 141.3"
       inkscape:connector-curvature="0" />
    <path
       id="path848"
       inkscape:label="part"
       style="fill:none;stroke:#000000;stroke-width:1"
       d="M 44.1,141.3 H 31.845 v 3.1 h -15.49 v -3.1 H 4.0999999"
       inkscape:connector-curvature="0" />
    <path
       id="path850"
       inkscape:label="part"
       style="fill:none;stroke:#000000;stroke-width:1"
       d="m 4.0999999,141.3 v -7.54389 H 1 V 122.97722 H 4.0999999 V 112.37833 H 1 V 101.59944 H 4.0999999 V 91.000555 H 1 V 80.221666 H 4.0999999 V 69.622778 H 1 V 58.843889 H 4.0999999 V 51.3"
       inkscape:connector-curvature="0" />
    <path
       id="path852"
       inkscape:label="part"
       style="fill:none;stroke:#000000;stroke-width:1"
       d="M 3.0999999,242.9 H 15.355 v -3.1 h 15.49 v 3.1 H 43.1"
       inkscape:connector-curvature="0" />
    <path
       id="path854"
       inkscape:label="part"
       style="fill:none;stroke:#000000;stroke-width:1"
       d="m 43.1,242.9 v 7.54389 0 L 30.486143,260.7613 v 0 10.59889 0 10.77888 0 10.59889 0 10.77889 0 10.59889 0 L 43.1,325.35611 v 0 7.54389"
       inkscape:connector-curvature="0"
       sodipodi:nodetypes="cccccccccccccccccc" />
    <path
       id="path856"
       inkscape:label="part"
       style="fill:none;stroke:#000000;stroke-width:1"
       d="M 43.1,332.9 H 30.845 v 3.1 h -15.49 v -3.1 H 3.0999999"
       inkscape:connector-curvature="0" />
    <path
       id="path858"
       inkscape:label="part"
       style="fill:none;stroke:#000000;stroke-width:1"
       d="m 3.0999999,332.9 v -7.54389 0 -10.77889 0 -10.59889 0 -10.77889 0 -10.59889 0 -10.77888 0 -10.59889 0 -10.77889 0 V 242.9"
       inkscape:connector-curvature="0" />
    <path
       id="path860"
       inkscape:label="part"
       style="fill:none;stroke:#000000;stroke-width:1"
       d="m 48.2,48.2 h 11.517727 v 3.1 h 11.382727 v -3.1 h 11.562728 v 3.1 h 11.382727 v -3.1 h 11.562731 v 3.1 h 11.38272 v -3.1 h 11.56273 v 3.1 h 11.38273 v -3.1 h 11.56273 v 3.1 h 11.38272 V 48.2 H 174.4"
       inkscape:connector-curvature="0" />
    <path
       id="path862"
       inkscape:label="part"
       style="fill:none;stroke:#000000;stroke-width:1"
       d="m 174.4,48.2 v 10.733889 h -3.1 v 10.598889 h 3.1 v 10.778888 h -3.1 v 10.598889 h 3.1 v 10.778885 h -3.1 v 10.59889 h 3.1 v 10.77889 h -3.1 v 10.59889 h 3.1 V 144.4"
       inkscape:connector-curvature="0" />
    <path
       id="path864"
       inkscape:label="part"
       style="fill:none;stroke:#000000;stroke-width:1"
       d="m 174.4,144.4 h -11.51773 v -3.1 h -11.38272 v 3.1 h -11.56273 v -3.1 h -11.38273 v 3.1 h -11.56273 v -3.1 h -11.38272 v 3.1 H 94.045909 v -3.1 H 82.663182 v 3.1 H 71.100454 v -3.1 H 59.717727 v 3.1 H 48.2"
       inkscape:connector-curvature="0" />
    <path
       id="path866"
       inkscape:label="part"
       style="fill:none;stroke:#000000;stroke-width:1"
       d="m 48.2,144.4 v -10.73389 h 3.1 v -10.59889 h -3.1 v -10.77889 h 3.1 V 101.68944 H 48.2 V 90.910555 h 3.1 V 80.311666 H 48.2 V 69.532778 h 3.1 V 58.933889 H 48.2 V 48.2"
       inkscape:connector-curvature="0" />
    <path
       id="path868"
       inkscape:label="part"
       style="fill:none;stroke:#000000;stroke-width:1"
       d="m 178.5,51.3 h 12.255 v -3.1 h 15.49 v 3.1 H 218.5"
       inkscape:connector-curvature="0" />
    <path
       id="path870"
       inkscape:label="part"
       style="fill:none;stroke:#000000;stroke-width:1"
       d="m 218.5,51.3 v 7.543889 h 3.1 v 10.778889 h -3.1 v 10.598888 h 3.1 v 10.778889 h -3.1 v 10.598885 h 3.1 v 10.77889 h -3.1 v 10.59889 h 3.1 v 10.77889 h -3.1 V 141.3"
       inkscape:connector-curvature="0" />
    <path
       id="path872"
       inkscape:label="part"
       style="fill:none;stroke:#000000;stroke-width:1"
       d="m 218.5,141.3 h -12.255 v 3.1 h -15.49 v -3.1 H 178.5"
       inkscape:connector-curvature="0" />
    <path
       id="path874"
       inkscape:label="part"
       style="fill:none;stroke:#000000;stroke-width:1"
       d="m 178.5,141.3 v -7.54389 h -3.1 v -10.77889 h 3.1 v -10.59889 h -3.1 v -10.77889 h 3.1 V 91.000555 h -3.1 V 80.221666 h 3.1 V 69.622778 h -3.1 V 58.843889 h 3.1 V 51.3"
       inkscape:connector-curvature="0" />
    <path
       id="path876"
       inkscape:label="part"
       style="fill:none;stroke:#000000;stroke-width:1"
       d="m 222.6,48.2 h 11.51773 v 3.1 h 11.38272 v -3.1 h 11.56273 v 3.1 h 11.38273 v -3.1 h 11.56273 v 3.1 h 11.38272 v -3.1 h 11.56273 v 3.1 h 11.38273 v -3.1 h 11.56272 v 3.1 h 11.38273 V 48.2 H 348.8"
       inkscape:connector-curvature="0" />
    <path
       id="path878"
       inkscape:label="part"
       style="fill:none;stroke:#000000;stroke-width:1"
       d="m 348.8,48.2 v 10.733889 h -3.1 v 10.598889 h 3.1 v 10.778888 h -3.1 v 10.598889 h 3.1 v 10.778885 h -3.1 v 10.59889 h 3.1 v 10.77889 h -3.1 v 10.59889 h 3.1 V 144.4"
       inkscape:connector-curvature="0" />
    <path
       id="path880"
       inkscape:label="part"
       style="fill:none;stroke:#000000;stroke-width:1"
       d="m 348.8,144.4 h -11.51773 v -3.1 h -11.38273 v 3.1 h -11.56272 v -3.1 h -11.38273 l 0.15383,7.561 h -11.56273 l -0.15383,-7.561 h -11.38272 l 0.15383,7.561 h -11.56273 l -0.15383,-7.561 h -11.38273 v 3.1 h -11.56273 v -3.1 h -11.38272 v 3.1 H 222.6"
       inkscape:connector-curvature="0"
       sodipodi:nodetypes="cccccccccccccccccccccc" />
    <path
       id="path882"
       inkscape:label="part"
       style="fill:none;stroke:#000000;stroke-width:1"
       d="m 222.6,144.4 v -10.73389 h 3.1 v -10.59889 h -3.1 v -10.77889 h 3.1 v -10.59889 h -3.1 V 90.910555 h 3.1 V 80.311666 h -3.1 V 69.532778 h 3.1 V 58.933889 h -3.1 V 48.2"
       inkscape:connector-curvature="0" />
    <path
       id="path884"
       inkscape:label="part"
       style="fill:none;stroke:#000000;stroke-width:1"
       d="M 48.2,4.0999999 H 59.627727 V 1 H 71.190454 V 4.0999999 H 82.573182 V 1 H 94.135909 V 4.0999999 H 105.51864 V 1 h 11.56272 v 3.0999999 h 11.38273 V 1 h 11.56273 v 3.0999999 h 11.38273 V 1 h 11.56272 V 4.0999999 H 174.4"
       inkscape:connector-curvature="0" />
    <path
       id="path886"
       inkscape:label="part"
       style="fill:none;stroke:#000000;stroke-width:1"
       d="m 109.75,16.445 v 15.31 h 3.1 v -15.31 h -3.1"
       inkscape:connector-curvature="0" />
    <path
       id="path888"
       inkscape:label="part"
       style="fill:none;stroke:#000000;stroke-width:1"
       d="M 174.4,4.0999999 V 16.445 h -3.1 v 15.31 h 3.1 V 44.1"
       inkscape:connector-curvature="0" />
    <path
       id="path890"
       inkscape:label="part"
       style="fill:none;stroke:#000000;stroke-width:1"
       d="m 174.4,44.1 h -11.42773 v 3.1 h -11.56272 v -3.1 h -11.38273 v 3.1 h -11.56273 v -3.1 h -11.38273 v 3.1 H 105.51864 V 44.1 H 94.135909 v 3.1 H 82.573182 V 44.1 H 71.190454 v 3.1 H 59.627727 V 44.1 H 48.2"
       inkscape:connector-curvature="0" />
    <path
       id="path892"
       inkscape:label="part"
       style="fill:none;stroke:#000000;stroke-width:1"
       d="M 48.2,44.1 V 31.755 h 3.1 V 16.445 H 48.2 V 4.0999999"
       inkscape:connector-curvature="0" />
    <flowRoot
       xml:space="preserve"
       id="flowRoot993"
       style="font-style:normal;font-weight:normal;font-size:40px;line-height:1.25;font-family:sans-serif;letter-spacing:0px;word-spacing:0px;fill:#000000;fill-opacity:1;stroke:none"
       transform="matrix(0.26458333,0,0,0.26458333,-6.0263489,-7.3316187)"><flowRegion
         id="flowRegion995"><rect
           id="rect997"
           width="123.33258"
           height="103.59939"
           x="231.86525"
           y="235.57204" /></flowRegion><flowPara
         id="flowPara999">Elias</flowPara><flowPara
         id="flowPara1001">Hrafn</flowPara></flowRoot>    <flowRoot
       xml:space="preserve"
       id="flowRoot1003"
       style="font-style:normal;font-weight:normal;font-size:40px;line-height:1.25;font-family:sans-serif;letter-spacing:0px;word-spacing:0px;fill:#000000;fill-opacity:1;stroke:none"
       transform="matrix(0.26458333,0,0,0.26458333,-2.9807194,1.3701799)"><flowRegion
         id="flowRegion1005"><rect
           id="rect1007"
           width="245.94576"
           height="66.078362"
           x="399.59756"
           y="235.57204" /></flowRegion><flowPara
         id="flowPara1009">159468273</flowPara></flowRoot>    <path
       style="fill:none;stroke:#000000;stroke-width:0.26458332px;stroke-linecap:butt;stroke-linejoin:miter;stroke-opacity:1"
       d="m 180.56653,154.32094 c -0.0362,0.30696 0.22117,0.0176 0.22117,0.0176 l -0.22117,-0.0269"
       id="path1013"
       inkscape:connector-curvature="0" />
    <g
       id="g1017">
      <path
         inkscape:transform-center-y="0.42136169"
         inkscape:transform-center-x="-1.8044808"
         d="m 249.64911,91.56826 -5.92376,-22.169073 -19.4001,12.255402 19.25349,-12.484455 -17.65054,-14.663466 17.82308,14.453256 8.49147,-21.317921 -8.23823,21.417058 22.89856,1.488265 -22.91459,-1.216786 z"
         inkscape:randomized="0"
         inkscape:rounded="0"
         inkscape:flatsided="false"
         sodipodi:arg2="1.9439325"
         sodipodi:arg1="1.3156139"
         sodipodi:r2="0.23133621"
         sodipodi:r1="23.133621"
         sodipodi:cy="69.183769"
         sodipodi:cx="243.80968"
         sodipodi:sides="5"
         id="path948"
         style="fill:#000000;fill-opacity:1;stroke:#b2ffff;stroke-width:0;stroke-miterlimit:4;stroke-dasharray:none;stroke-opacity:1"
         sodipodi:type="star" />
      <path
         inkscape:transform-center-y="-0.93146212"
         inkscape:transform-center-x="-1.2029862"
         d="m 246.40498,101.62505 -3.7337,21.5827 21.71558,-2.8613 -21.68015,3.11846 9.43175,19.76855 -9.66537,-19.65539 -15.88644,15.07895 15.70663,-15.26616 -19.25011,-10.44925 19.37259,10.22038 z"
         inkscape:randomized="0"
         inkscape:rounded="0"
         inkscape:flatsided="false"
         sodipodi:arg2="-0.76525241"
         sodipodi:arg1="-1.3935709"
         sodipodi:r2="0.22081536"
         sodipodi:r1="22.081535"
         sodipodi:cy="123.36072"
         sodipodi:cx="242.51202"
         sodipodi:sides="5"
         id="path950"
         style="fill:#000000;fill-opacity:1;stroke:#b2ffff;stroke-width:0;stroke-miterlimit:4;stroke-dasharray:none;stroke-opacity:1"
         sodipodi:type="star" />
      <path
         inkscape:transform-center-y="-1.6039872"
         inkscape:transform-center-x="0.73596649"
         d="m 303.17723,118.49454 23.52106,5.00941 -2.22054,-23.94585 2.50417,23.91785 22.08767,-9.51153 -21.97339,9.77263 15.87147,18.0674 -16.08448,-17.87804 -12.27856,20.6778 12.03264,-20.82186 z"
         inkscape:randomized="0"
         inkscape:rounded="0"
         inkscape:flatsided="false"
         sodipodi:arg2="-2.2975079"
         sodipodi:arg1="-2.9258265"
         sodipodi:r2="0.24244304"
         sodipodi:r1="24.244305"
         sodipodi:cy="123.68514"
         sodipodi:cx="326.85938"
         sodipodi:sides="5"
         id="path964"
         style="fill:#000000;fill-opacity:1;stroke:#b2ffff;stroke-width:0;stroke-miterlimit:4;stroke-dasharray:none;stroke-opacity:1"
         sodipodi:type="star" />
      <path
         inkscape:transform-center-y="1.9047321"
         inkscape:transform-center-x="0.69776823"
         d="m 301.2308,76.969677 26.02862,-6.268433 -13.73352,-22.982013 14.00492,22.81764 17.6133,-20.163189 -17.37311,20.370511 24.61915,10.520477 -24.7421,-10.227972 -2.39783,26.665201 2.08165,-26.691746 z"
         inkscape:randomized="0"
         inkscape:rounded="0"
         inkscape:flatsided="false"
         sodipodi:arg2="3.5395087"
         sodipodi:arg1="2.9111902"
         sodipodi:r2="0.26990685"
         sodipodi:r1="26.990685"
         sodipodi:cy="70.805832"
         sodipodi:cx="327.50824"
         sodipodi:sides="5"
         id="path966"
         style="fill:#000000;fill-opacity:1;stroke:#b2ffff;stroke-width:0;stroke-miterlimit:4;stroke-dasharray:none;stroke-opacity:1"
         sodipodi:type="star" />
      <path
         inkscape:transform-center-y="-0.20324331"
         inkscape:transform-center-x="2.0936449"
         d="m 225.7,90.910554 23.75922,0.511616 -6.58528,-22.834109 6.85543,22.754462 19.68157,-13.319101 -19.52234,13.551415 18.74916,14.602453 -18.9209,-14.379228 -8.09395,22.343908 7.82858,-22.438261 z"
         inkscape:randomized="0"
         inkscape:rounded="0"
         inkscape:flatsided="false"
         sodipodi:arg2="-2.4858184"
         sodipodi:arg1="-3.1141369"
         sodipodi:r2="0.23958141"
         sodipodi:r1="23.958139"
         sodipodi:cy="91.56826"
         sodipodi:cx="249.64911"
         sodipodi:sides="5"
         id="path968"
         style="fill:#000000;fill-opacity:1;stroke:#b2ffff;stroke-width:0;stroke-miterlimit:4;stroke-dasharray:none;stroke-opacity:1"
         sodipodi:type="star" />
      <path
         inkscape:transform-center-y="-0.325626"
         inkscape:transform-center-x="-2.728835"
         d="m 301.23081,76.969678 -31.55624,1.232252 10.57143,29.75835 -10.92336,-29.630977 -25.03512,19.24986 24.80523,-19.545203 -26.04398,-17.861284 26.25383,17.551378 8.93906,-30.28874 -8.57948,30.392551 z"
         inkscape:randomized="0"
         inkscape:rounded="0"
         inkscape:flatsided="false"
         sodipodi:arg2="0.59521468"
         sodipodi:arg1="-0.033103847"
         sodipodi:r2="0.31837302"
         sodipodi:r1="31.837301"
         sodipodi:cy="78.023422"
         sodipodi:cx="269.41095"
         sodipodi:sides="5"
         id="path970"
         style="fill:#000000;fill-opacity:1;stroke:#b2ffff;stroke-width:0;stroke-miterlimit:4;stroke-dasharray:none;stroke-opacity:1"
         sodipodi:type="star" />
      <path
         inkscape:transform-center-y="2.3721429"
         inkscape:transform-center-x="-0.099369087"
         d="m 317.45144,62.695508 -14.67832,21.00396 24.42156,7.7593 -24.5118,-7.469331 0.16714,25.624043 -0.47081,-25.620263 -24.31826,8.077227 24.22083,-8.36486 -15.19666,-20.632039 15.44011,20.450492 z"
         inkscape:randomized="0"
         inkscape:rounded="0"
         inkscape:flatsided="false"
         sodipodi:arg2="-0.32660784"
         sodipodi:arg1="-0.95492637"
         sodipodi:r2="0.25833127"
         sodipodi:r1="25.83313"
         sodipodi:cy="83.782349"
         sodipodi:cx="302.52844"
         sodipodi:sides="5"
         id="path972"
         style="fill:#000000;fill-opacity:1;stroke:#b2ffff;stroke-width:0;stroke-miterlimit:4;stroke-dasharray:none;stroke-opacity:1"
         sodipodi:type="star" />
      <path
         inkscape:transform-center-y="2.6629832"
         inkscape:transform-center-x="-0.047403017"
         d="m 286.95659,93.190324 -16.27582,22.944226 26.74945,8.70669 -26.85076,-8.38907 -0.0145,28.13076 -0.31886,-28.12896 -26.75843,8.67907 26.65369,-8.99558 L 253.61825,93.370668 270.41,115.94005 Z"
         inkscape:randomized="0"
         inkscape:rounded="0"
         inkscape:flatsided="false"
         sodipodi:arg2="-0.31956874"
         sodipodi:arg1="-0.94788727"
         sodipodi:r2="0.28359699"
         sodipodi:r1="28.359701"
         sodipodi:cy="116.22364"
         sodipodi:cx="270.41153"
         sodipodi:sides="5"
         id="path985"
         style="fill:#000000;fill-opacity:1;stroke:#b2ffff;stroke-width:0;stroke-miterlimit:4;stroke-dasharray:none;stroke-opacity:1"
         sodipodi:type="star" />
      <path
         inkscape:transform-center-y="0.35114992"
         inkscape:transform-center-x="2.7316339"
         d="m 321.01997,86.702061 -24.98318,19.777829 26.31904,17.9619 -26.53006,-17.64873 -8.94975,30.58142 8.5867,-30.68534 -31.85029,0.93846 31.83693,-1.31586 -10.73481,-30.001418 11.08961,29.872098 z"
         inkscape:randomized="0"
         inkscape:rounded="0"
         inkscape:flatsided="false"
         sodipodi:arg2="-0.035381851"
         sodipodi:arg1="-0.66370038"
         sodipodi:r2="0.32123432"
         sodipodi:r1="32.123432"
         sodipodi:cy="106.49125"
         sodipodi:cx="295.71576"
         sodipodi:sides="5"
         id="path987"
         style="fill:#000000;fill-opacity:1;stroke:#b2ffff;stroke-width:0;stroke-miterlimit:4;stroke-dasharray:none;stroke-opacity:1"
         sodipodi:type="star" />
      <path
         inkscape:transform-center-y="1.0907804"
         inkscape:transform-center-x="-1.3616912"
         d="m 302.85001,109.61347 22.14897,-11.946872 -17.99939,-17.587685 18.20656,17.373136 11.16476,-22.553331 -10.89669,22.684063 24.89959,3.648959 -24.94109,-3.353613 4.22403,24.808513 -4.51774,-24.756712 z"
         inkscape:randomized="0"
         inkscape:rounded="0"
         inkscape:flatsided="false"
         sodipodi:arg2="3.2811781"
         sodipodi:arg1="2.6528596"
         sodipodi:r2="0.25370356"
         sodipodi:r1="25.370356"
         sodipodi:cy="97.701897"
         sodipodi:cx="325.25021"
         sodipodi:sides="5"
         id="path989"
         style="fill:#000000;fill-opacity:1;stroke:#b2ffff;stroke-width:0;stroke-miterlimit:4;stroke-dasharray:none;stroke-opacity:1"
         sodipodi:type="star" />
      <path
         inkscape:transform-center-y="0.44909311"
         inkscape:transform-center-x="1.7305653"
         d="m 314.85607,110.38421 -17.19994,14.4425 18.9084,12.12007 -19.05071,-11.89514 -5.68386,21.72827 5.42596,-21.7941 -22.42122,1.30873 22.40413,-1.57436 -8.17321,-20.91942 8.42056,20.82109 z"
         inkscape:randomized="0"
         inkscape:rounded="0"
         inkscape:flatsided="false"
         sodipodi:arg2="-0.064229752"
         sodipodi:arg1="-0.69254828"
         sodipodi:r2="0.22642165"
         sodipodi:r1="22.642166"
         sodipodi:cy="124.84124"
         sodipodi:cx="297.43018"
         sodipodi:sides="5"
         id="path992"
         style="fill:#000000;fill-opacity:1;stroke:#b2ffff;stroke-width:0;stroke-miterlimit:4;stroke-dasharray:none;stroke-opacity:1"
         sodipodi:type="star" />
      <path
         inkscape:transform-center-y="2.0049812"
         inkscape:transform-center-x="-0.63339658"
         d="m 316.1538,76.96968 -26.42478,-6.279405 1.87265,27.095999 -2.19364,-27.071903 -25.19115,10.15412 25.06904,-10.451951 -17.44163,-20.820407 17.68715,20.612241 14.41163,-23.021839 -14.13778,23.191017 z"
         inkscape:randomized="0"
         inkscape:rounded="0"
         inkscape:flatsided="false"
         sodipodi:arg2="0.86755013"
         sodipodi:arg1="0.2392316"
         sodipodi:r2="0.27381676"
         sodipodi:r1="27.381678"
         sodipodi:cy="70.481422"
         sodipodi:cx="289.55194"
         sodipodi:sides="5"
         id="path994"
         style="fill:#000000;fill-opacity:1;stroke:#b2ffff;stroke-width:0;stroke-miterlimit:4;stroke-dasharray:none;stroke-opacity:1"
         sodipodi:type="star" />
    </g>
  </g>
  <g
     id="g895"
     inkscape:groupmode="layer"
     inkscape:label="newlayer"
     transform="translate(-0.5,-0.5)" />
</svg>
